PathFileType	4	(X/Y/Z)	 s04c0403.trc
DataRate	CameraRate	NumFrames	NumMarkers	Units	OrigDataRate	OrigDataStartFrame	OrigNumFrames
200	200	4	50	mm	200	501	2000
Frame#	Time	racr			lacr			c7			jug			rlel			rdr			llel			ldr			s2			lic			ric			lasi			rasi			rpsi			lpsi			rgt			lgt			rth1			rth2			rth3			rth4			rlfc			rmfc			rsh1			rsh2			rsh3			rsh4			rlmal			rmmal			rcal			rtoe			rmt5			lth1			lth2			lth4			lth3			llfc			lmfc			lsh1			lsh2			lsh3			lsh4			llmal			lmmal			lcal			ltoe			lmt5			SBIKE			LBIKE			RBIKE			
		X1	Y1	Z1	X2	Y2	Z2	X3	Y3	Z3	X4	Y4	Z4	X5	Y5	Z5	X6	Y6	Z6	X7	Y7	Z7	X8	Y8	Z8	X9	Y9	Z9	X10	Y10	Z10	X11	Y11	Z11	X12	Y12	Z12	X13	Y13	Z13	X14	Y14	Z14	X15	Y15	Z15	X16	Y16	Z16	X17	Y17	Z17	X18	Y18	Z18	X19	Y19	Z19	X20	Y20	Z20	X21	Y21	Z21	X22	Y22	Z22	X23	Y23	Z23	X24	Y24	Z24	X25	Y25	Z25	X26	Y26	Z26	X27	Y27	Z27	X28	Y28	Z28	X29	Y29	Z29	X30	Y30	Z30	X31	Y31	Z31	X32	Y32	Z32	X33	Y33	Z33	X34	Y34	Z34	X35	Y35	Z35	X36	Y36	Z36	X37	Y37	Z37	X38	Y38	Z38	X39	Y39	Z39	X40	Y40	Z40	X41	Y41	Z41	X42	Y42	Z42	X43	Y43	Z43	X44	Y44	Z44	X45	Y45	Z45	X46	Y46	Z46	X47	Y47	Z47	X48	Y48	Z48	X49	Y49	Z49	X50	Y50	Z50	
501	2.5050	643.162783	1387.729444	-155.152725	674.470250	1344.240913	-366.470350	588.725651	1425.890491	-280.058823	587.142340	1266.195594	-258.542379	478.403690	1135.267654	11.554982	686.959479	950.669418	-70.249101	574.550629	1155.552835	-591.084179	701.170910	957.087051	-455.938346	-2.504422	1215.780226	-249.039740	149.271574	1188.498502	-404.118711	168.345638	1163.348426	-94.181729	168.651500	1134.442683	-368.670199	184.919539	1107.533753	-144.724754	45.148505	1239.685134	-205.065778	40.117288	1255.414671	-278.276432	94.971347	1118.770516	-70.077088	94.576558	1146.217307	-447.339751	173.804924	974.689636	-63.213394	232.555304	910.216849	-78.141167	254.562804	827.589397	-83.587842	258.665301	927.480972	-99.062136	302.583027	692.658718	-115.383101	272.946840	682.932125	-226.423979	216.450250	600.406837	-90.849766	176.035733	519.356551	-107.408756	102.263743	474.852716	-112.896812	200.430255	503.093766	-132.366041	14.395826	348.499973	-119.640579	36.586061	350.765143	-206.911376	-62.683456	339.471710	-161.999889	216.399395	220.277612	-160.728497	144.650962	221.878660	-108.000586	144.611483	1081.703574	-456.633958	226.480050	1054.172730	-461.894093	246.281069	1082.269902	-447.590936	285.168408	988.129672	-471.943652	407.611197	877.524403	-455.692265	447.921539	858.189586	-348.639670	380.169299	760.813507	-474.280523	367.976985	677.439003	-450.517867	314.798338	606.901572	-444.584568	396.551050	670.251947	-423.868068	251.246148	478.445441	-431.853663	253.836834	480.560577	-339.368253	174.607541	443.297419	-387.310938	473.973719	472.346574	-405.894506	407.440327	424.852395	-464.461231	-176.281517	934.260288	-279.350487	-2.816239	86.173261	-484.945728	-15.028169	80.540073	-84.149841	
502	2.5100	644.601757	1387.749797	-154.954684	676.306314	1344.047330	-366.504664	590.483189	1426.030186	-280.102644	588.751614	1266.388486	-258.488227	478.651631	1135.691825	11.247324	686.393838	950.353226	-70.470219	575.819546	1156.058492	-591.688553	701.038850	957.372100	-455.987691	-0.862720	1216.510467	-249.420804	150.796876	1188.603389	-404.538344	169.812655	1164.243107	-94.497585	169.960553	1134.620546	-368.955508	186.271823	1108.062380	-145.028588	46.935513	1240.422867	-205.550736	41.875041	1256.185135	-279.001377	96.553773	1119.848584	-70.217850	95.889899	1146.280162	-447.617523	175.421898	975.767298	-63.500377	233.891791	910.970774	-78.406926	255.639273	828.289469	-83.651922	260.028896	928.102796	-99.319045	302.909698	692.810453	-115.098131	273.382329	682.955493	-226.162709	216.400385	600.814376	-90.554578	175.617306	519.890202	-107.067224	101.653239	475.677738	-112.568537	199.988283	503.485308	-131.933039	13.413710	349.661597	-119.402634	35.694458	351.886780	-206.560821	-63.743793	340.597725	-161.692670	215.443190	221.739761	-160.823265	143.785201	223.080942	-107.828181	145.776139	1081.637131	-456.783614	227.590307	1053.891091	-461.909039	247.473430	1081.907367	-447.727951	286.085064	987.616051	-471.928285	408.207535	876.574746	-455.513127	448.582714	857.299006	-348.366541	380.751995	759.802320	-474.078599	368.761926	676.224683	-450.239747	315.579669	605.721116	-444.424246	397.286318	669.168965	-423.722799	251.974222	477.399285	-432.065587	254.764354	479.380540	-339.267171	175.511801	442.012057	-387.187032	474.812290	470.986729	-405.827153	408.345182	423.533596	-464.408607	-176.134145	934.191777	-279.060326	-2.808447	86.178557	-484.920689	-15.024211	80.552297	-84.152498	
503	2.5150	646.094040	1387.556741	-154.697121	678.012135	1343.963266	-366.520854	592.204435	1426.183799	-280.036793	590.312013	1266.565752	-258.389096	478.962681	1136.092693	10.926223	686.179219	950.206198	-70.829897	577.038013	1156.633094	-592.282327	701.060139	957.444133	-456.106400	0.748873	1217.221739	-249.752614	152.289132	1188.740035	-404.958136	171.208801	1164.952436	-94.865211	171.340310	1134.811581	-369.326014	187.615572	1108.736247	-145.464033	48.571159	1241.022966	-205.961451	43.543102	1256.699984	-279.495645	98.229646	1121.091926	-70.507322	97.267305	1146.359942	-447.920631	176.990535	976.705930	-63.852079	235.206544	911.774383	-78.638171	256.633315	828.969698	-83.676494	261.312425	928.771157	-99.707043	303.152128	692.935018	-114.826852	273.719048	682.968952	-225.901399	216.226083	601.217342	-90.261767	175.156480	520.501350	-106.652486	101.018882	476.508997	-112.247652	199.519619	503.900708	-131.495043	12.422881	350.712769	-119.040505	34.599203	353.204533	-206.240902	-64.807614	341.716542	-161.312899	214.488238	223.076233	-160.874742	142.915822	224.398605	-107.671512	146.957319	1081.599645	-456.912912	228.695444	1053.501496	-461.991115	248.683679	1081.562084	-447.820604	286.929317	987.175627	-471.916828	408.757411	875.576093	-455.382731	449.154251	856.081806	-348.273993	381.348097	758.673913	-473.894627	369.346747	675.208466	-450.204153	316.284844	604.553656	-444.490133	398.026359	668.080681	-423.606094	252.898918	476.040715	-431.845426	255.710371	478.016135	-339.171648	176.416187	440.762483	-387.136431	475.694227	469.633581	-405.803367	409.279270	422.206682	-464.339066	-176.080120	934.178553	-279.082708	-2.815637	86.170983	-484.930886	-15.029778	80.549529	-84.136291	
504	2.5200	647.529485	1387.379155	-154.542818	679.756802	1343.876448	-366.677750	593.873997	1426.305560	-280.065623	591.855079	1266.829188	-258.274556	479.292765	1136.424713	10.559302	685.950756	950.036740	-71.296951	578.273533	1157.255166	-592.886241	701.085194	957.419025	-455.965224	2.366287	1217.971979	-250.176985	153.757860	1188.879129	-405.204279	172.368835	1165.765321	-95.954749	172.447320	1134.946509	-369.480171	189.070486	1109.457572	-145.657913	50.247225	1241.822445	-206.437329	45.211683	1257.515353	-280.148052	99.878589	1122.355125	-70.818334	98.627831	1146.563844	-448.255097	178.372015	977.757706	-64.066756	236.335685	912.523159	-78.781244	257.514210	829.648072	-83.641816	262.532360	929.357060	-99.987416	303.340466	693.082655	-114.539958	274.022048	682.949215	-225.597791	215.985229	601.634272	-89.947946	174.689543	521.032641	-106.223457	100.380957	477.404985	-111.906452	199.036438	504.390460	-131.058965	11.341237	351.822136	-118.768874	33.565019	354.415853	-205.924607	-65.873630	342.776354	-160.899492	213.465603	224.621800	-160.935948	142.039661	225.697419	-107.436059	148.143520	1081.594602	-457.061147	229.775270	1053.210606	-462.087910	249.856955	1081.269495	-447.978707	287.768757	986.653425	-471.919754	409.262935	874.582116	-455.220947	449.574219	855.057024	-348.202412	381.848833	757.543899	-473.767008	369.974385	674.049707	-450.011274	317.039428	603.428516	-444.245424	398.655699	666.952286	-423.479336	253.901646	474.681002	-431.477527	256.764202	476.595347	-338.914228	177.345655	439.507200	-387.023261	476.620944	468.279355	-405.770218	410.135341	420.904469	-464.342452	-176.078600	934.185644	-279.111548	-2.798680	86.161396	-484.923578	-15.028378	80.551975	-84.145580	
